<svg width="56" height="56" viewBox="0 0 56 56" fill="none" xmlns="http://www.w3.org/2000/svg">
<circle opacity="0.25" cx="28" cy="28" r="22" fill="white"/>
<path d="M52.3151 17.842C53.1551 17.491 53.556 16.523 53.1562 15.7051C51.5865 12.4933 49.4138 9.60703 46.7514 7.20616C43.6804 4.43676 40.034 2.38199 36.0744 1.18948C32.1148 -0.00302925 27.9401 -0.303662 23.8505 0.309182C19.7608 0.922026 15.8577 2.43313 12.4215 4.73392C8.98534 7.0347 6.10147 10.068 3.97709 13.616C1.85272 17.1639 0.540594 21.1384 0.135001 25.2538C-0.270591 29.3691 0.240418 33.5233 1.63131 37.4177C2.83712 40.7938 4.67825 43.9021 7.05004 46.5768C7.65403 47.258 8.70177 47.256 9.34621 46.613C9.99065 45.97 9.98715 44.9297 9.38852 44.2439C7.35778 41.9171 5.77801 39.2263 4.736 36.3088C3.50887 32.8729 3.05803 29.2079 3.41587 25.5771C3.7737 21.9463 4.93134 18.4398 6.80558 15.3096C8.67983 12.1794 11.2242 9.50319 14.2557 7.4733C17.2873 5.44341 20.7309 4.11023 24.339 3.56954C27.9472 3.02885 31.6303 3.29409 35.1237 4.34619C38.6171 5.39829 41.8342 7.21113 44.5436 9.65445C46.8443 11.7292 48.7306 14.2148 50.1084 16.9787C50.5145 17.7934 51.475 18.1929 52.3151 17.842Z" fill="white"/>
<path d="M27.9446 35.179C26.9602 35.179 26.0845 35.0192 25.3175 34.6996C24.5547 34.3757 23.956 33.9347 23.5213 33.3764C23.0866 32.8182 22.8693 32.1854 22.8693 31.478C22.8693 30.9325 22.9929 30.4318 23.2401 29.9759C23.4915 29.5156 23.8324 29.1342 24.2628 28.8317C24.6932 28.5249 25.1747 28.3288 25.7074 28.2436V28.1541C25.0085 28.0135 24.4418 27.6747 24.0071 27.1378C23.5724 26.5966 23.3551 25.968 23.3551 25.2521C23.3551 24.5746 23.5533 23.9716 23.9496 23.4432C24.3459 22.9105 24.8892 22.4929 25.5795 22.1903C26.2741 21.8835 27.0625 21.7301 27.9446 21.7301C28.8267 21.7301 29.6129 21.8835 30.3033 22.1903C30.9979 22.4972 31.5433 22.9169 31.9396 23.4496C32.3359 23.978 32.5362 24.5788 32.5405 25.2521C32.5362 25.9723 32.3146 26.6009 31.8757 27.1378C31.4368 27.6747 30.8743 28.0135 30.1882 28.1541V28.2436C30.7124 28.3288 31.1875 28.5249 31.6136 28.8317C32.044 29.1342 32.3849 29.5156 32.6364 29.9759C32.892 30.4318 33.022 30.9325 33.0263 31.478C33.022 32.1854 32.8026 32.8182 32.3679 33.3764C31.9332 33.9347 31.3324 34.3757 30.5653 34.6996C29.8026 35.0192 28.929 35.179 27.9446 35.179ZM27.9446 33.1463C28.3835 33.1463 28.767 33.0675 29.0952 32.9098C29.4233 32.7479 29.679 32.5263 29.8622 32.245C30.0497 31.9595 30.1435 31.6314 30.1435 31.2607C30.1435 30.8814 30.0476 30.5469 29.8558 30.2571C29.6641 29.9631 29.4041 29.733 29.076 29.5668C28.7479 29.3963 28.3707 29.3111 27.9446 29.3111C27.5227 29.3111 27.1456 29.3963 26.8132 29.5668C26.4808 29.733 26.2188 29.9631 26.027 30.2571C25.8395 30.5469 25.7457 30.8814 25.7457 31.2607C25.7457 31.6314 25.8374 31.9595 26.0206 32.245C26.2038 32.5263 26.4616 32.7479 26.794 32.9098C27.1264 33.0675 27.5099 33.1463 27.9446 33.1463ZM27.9446 27.2976C28.3111 27.2976 28.6371 27.223 28.9226 27.0739C29.2081 26.9247 29.4318 26.718 29.5938 26.4538C29.7557 26.1896 29.8366 25.8849 29.8366 25.5398C29.8366 25.1989 29.7557 24.9006 29.5938 24.6449C29.4318 24.3849 29.2102 24.1825 28.929 24.0376C28.6477 23.8885 28.3196 23.8139 27.9446 23.8139C27.5739 23.8139 27.2457 23.8885 26.9602 24.0376C26.6747 24.1825 26.451 24.3849 26.2891 24.6449C26.1314 24.9006 26.0526 25.1989 26.0526 25.5398C26.0526 25.8849 26.1335 26.1896 26.2955 26.4538C26.4574 26.718 26.6811 26.9247 26.9666 27.0739C27.2521 27.223 27.5781 27.2976 27.9446 27.2976Z" fill="white"/>
</svg>
