<svg width="32" height="32" viewBox="0 0 32 32" fill="none" xmlns="http://www.w3.org/2000/svg">
<rect x="2" y="4.80005" width="28" height="25.2" rx="3" fill="#0BB885"/>
<path d="M2 7.80005C2 6.1432 3.34315 4.80005 5 4.80005H27C28.6569 4.80005 30 6.14319 30 7.80005V13.2H2V7.80005Z" fill="#98FFE0"/>
<path fill-rule="evenodd" clip-rule="evenodd" d="M9.00004 2C9.77324 2 10.4 2.6268 10.4 3.4V6.2C10.4 6.9732 9.77324 7.6 9.00004 7.6C8.22684 7.6 7.60004 6.9732 7.60004 6.2V3.4C7.60004 2.6268 8.22684 2 9.00004 2Z" fill="#0BB885"/>
<path fill-rule="evenodd" clip-rule="evenodd" d="M23 2C23.7732 2 24.4 2.6268 24.4 3.4V6.2C24.4 6.9732 23.7732 7.6 23 7.6C22.2268 7.6 21.6 6.9732 21.6 6.2V3.4C21.6 2.6268 22.2268 2 23 2Z" fill="#0BB885"/>
</svg>
