<svg width="32" height="32" viewBox="0 0 32 32" fill="none" xmlns="http://www.w3.org/2000/svg">
<path fill-rule="evenodd" clip-rule="evenodd" d="M17.2727 25.5H21.0909C21.7938 25.5 22.3636 26.0597 22.3636 26.75C22.3636 27.4404 21.7938 28 21.0909 28H10.9091C10.2062 28 9.63635 27.4404 9.63635 26.75C9.63635 26.0597 10.2062 25.5 10.9091 25.5H14.7273V19.25H17.2727V25.5Z" fill="#98FFE0"/>
<path fill-rule="evenodd" clip-rule="evenodd" d="M7.09091 8H4.54545V10.5C4.54545 11.8807 5.68509 13 7.09091 13V8ZM4.54545 5.5C3.13964 5.5 2 6.61929 2 8V10.5C2 13.2614 4.27928 15.5 7.09091 15.5H9.63636V5.5H4.54545Z" fill="#98FFE0"/>
<path fill-rule="evenodd" clip-rule="evenodd" d="M24.9091 8H27.4545V10.5C27.4545 11.8807 26.3149 13 24.9091 13V8ZM27.4545 5.5C28.8604 5.5 30 6.61929 30 8V10.5C30 13.2614 27.7207 15.5 24.9091 15.5H22.3636V5.5H27.4545Z" fill="#98FFE0"/>
<path d="M7.09088 5C7.09088 3.89543 7.98631 3 9.09088 3H22.9091C24.0136 3 24.9091 3.89543 24.9091 5V13.75C24.9091 18.1683 21.3273 21.75 16.9091 21.75H15.0909C10.6726 21.75 7.09088 18.1683 7.09088 13.75V5Z" fill="#0BB885"/>
</svg>
