<svg width="20" height="20" viewBox="0 0 20 20" fill="none" xmlns="http://www.w3.org/2000/svg">
<g clip-path="url(#clip0_340_1131)">
<path d="M18.9998 10.6667C18.9998 12.3235 17.6566 13.6667 15.9998 13.6667H7.59976C5.9429 13.6667 4.59975 12.3235 4.59975 10.6667V5.66669C4.59975 4.00983 5.9429 2.66669 7.59975 2.66669H13.5998L15.8763 1.12092C17.2042 0.21925 18.9998 1.17043 18.9998 2.77553V10.6667Z" fill="#98FFE0"/>
<path d="M1 9.33329C1 7.67643 2.34315 6.33328 4 6.33328H12.4C14.0569 6.33328 15.4 7.67643 15.4 9.33328V14.3333C15.4 15.9901 14.0569 17.3333 12.4 17.3333H5.5L4.26335 18.3409C2.95679 19.4055 1 18.4758 1 16.7905V9.33329Z" fill="#0BB885"/>
<path fill-rule="evenodd" clip-rule="evenodd" d="M4.6001 11.8334C4.6001 11.3272 5.00304 10.9167 5.5001 10.9167H10.9001C11.3972 10.9167 11.8001 11.3272 11.8001 11.8334C11.8001 12.3397 11.3972 12.7501 10.9001 12.7501H5.5001C5.00304 12.7501 4.6001 12.3397 4.6001 11.8334Z" fill="#98FFE0"/>
</g>
<defs>
<clipPath id="clip0_340_1131">
<rect width="20" height="20" fill="white"/>
</clipPath>
</defs>
</svg>
