<svg width="20" height="20" viewBox="0 0 20 20" fill="none" xmlns="http://www.w3.org/2000/svg">
<ellipse cx="11.8" cy="5.55556" rx="3.6" ry="3.55556" fill="#98FFE0"/>
<path d="M10.0001 10.8889C7.01776 10.8889 4.6001 13.2767 4.6001 16.2222C4.6001 17.2041 5.40599 18 6.4001 18H17.2001C18.1942 18 19.0001 17.2041 19.0001 16.2222V15.3334C19.0001 12.8788 16.9854 10.8889 14.5001 10.8889H10.0001Z" fill="#98FFE0"/>
<path d="M5.5 10.8889C3.01472 10.8889 1 12.8787 1 15.3333V16.2222C1 17.2041 1.80589 18 2.8 18H13.6C14.5941 18 15.4 17.2041 15.4 16.2222V15.3333C15.4 12.8787 13.3853 10.8889 10.9 10.8889H5.5Z" fill="#0BB885"/>
<ellipse cx="8.2001" cy="5.55556" rx="3.6" ry="3.55556" fill="#0BB885"/>
</svg>
